<svg width="2683" height="500" viewBox="0 0 2683 500" fill="none" xmlns="http://www.w3.org/2000/svg">
<path d="M2381.02 191.436C2399.66 175.925 2423.17 167.469 2447.42 167.55C2477.89 167.55 2500.69 181.915 2507.68 202.354L2557.02 177.923C2543.89 142.368 2507.85 119.369 2459.84 119.369C2421.69 119.369 2386.31 131.96 2354.3 157.45C2322.3 182.939 2301.65 214.161 2292.61 250.467C2283.57 286.773 2288.58 317.995 2308.34 343.143C2328.1 368.291 2357.95 380.882 2397.54 380.882C2433.44 381.27 2468.41 369.496 2496.76 347.476C2525.28 325.942 2545.42 295.155 2553.71 260.396L2558.56 240.981H2429.92L2418.96 284.828H2496.63C2480.01 314.617 2449.13 332.599 2409.92 332.599C2383.58 332.599 2363.82 325.058 2351.91 309.601C2340.01 294.143 2336.87 274.387 2342.77 250.672C2348.37 227.133 2361.87 206.225 2381.02 191.436Z" fill="#03010D"/>
<path d="M2126.67 222.146L2198.33 375.866H2236.75L2299.47 124.454H2248.9L2210.61 277.799L2138.96 124.454H2100.47L2037.75 375.866H2088.32L2126.67 222.146Z" fill="#03010D"/>
<path d="M741.758 175.944C733.057 140.389 705.623 119.54 664.199 119.54V119.404C641.099 119.508 618.587 126.702 599.708 140.013C580.538 152.564 566.9 171.977 561.593 194.268C555.827 217.232 559.682 234.873 572.888 245.997C586.093 257.121 598.821 262.512 620.215 269.336C639.665 275.069 652.597 280.46 659.422 285.51C666.246 290.06 668.521 296.885 666.246 305.984C662.288 321.407 646.694 332.565 618.475 332.565C589.13 332.565 572.444 319.633 569.032 294.109L519.623 318.916C524.332 357.338 553.984 381.053 604.928 381.053C630.502 381.604 655.653 374.473 677.131 360.579C697.068 347.996 711.344 328.167 716.951 305.267C720.313 293.606 720.075 281.202 716.269 269.678C713.676 261.079 704.19 252.105 697.638 247.43C693.299 244.219 688.503 241.677 683.409 239.889C678.57 237.494 673.564 235.453 668.43 233.781L652.256 228.014C634.649 222.282 623.15 216.891 617.349 212.216C614.745 209.804 612.887 206.697 611.992 203.263C611.097 199.829 611.204 196.21 612.299 192.834C615.984 178.094 631.407 167.686 652.29 167.686C674.572 167.686 688.357 178.469 693.237 200L741.758 175.944Z" fill="#03010D"/>
<path d="M476.697 212.796L436.024 375.866H486.252L548.968 124.454H497L394.053 243.335L366.005 175.808L365.8 175.637C350.548 142.743 319.189 119.404 282.815 119.404C247.192 119.404 225.968 126.228 206.04 139.877C186.888 152.439 173.265 171.849 167.96 194.131C162.193 217.095 166.049 234.736 179.254 245.86C192.46 256.984 205.187 262.376 226.582 269.2C246.032 274.933 258.793 280.733 265.788 285.374C272.783 290.014 275.035 296.839 272.783 305.847C268.825 321.27 253.231 332.429 225.012 332.429C195.667 332.429 178.981 319.496 175.569 293.973L126.126 318.78C130.835 357.201 160.487 380.916 211.432 380.916C237.005 381.468 262.157 374.336 283.634 360.443C303.543 347.892 317.815 328.116 323.455 305.267C326.799 293.604 326.561 281.204 322.772 269.678C320.179 261.079 310.693 252.105 304.142 247.43C299.797 244.227 295.002 241.685 289.913 239.889C285.073 237.494 280.067 235.453 274.933 233.781L258.759 228.014C241.152 222.282 229.653 216.891 223.852 212.216C221.249 209.804 219.39 206.697 218.495 203.263C217.6 199.829 217.707 196.21 218.802 192.834C222.487 178.094 243.575 166.629 273.056 166.629C295.406 166.629 317.654 192.323 322.397 213.854L323.079 213.512L369.383 329.528H375.389L476.697 212.796Z" fill="#03010D"/>
<path d="M944.069 124.454H755.305L743.499 171.849H812.391L761.481 375.866H812.084L862.96 171.849H932.399L944.069 124.454Z" fill="#03010D"/>
<path d="M1319.82 171.849L1331.63 124.454H1174.67L1111.88 375.866H1270.55L1282.36 328.47H1174.22L1188.32 272.066H1285.5L1297.16 225.387H1200.02L1213.36 171.849H1319.82Z" fill="#03010D"/>
<path d="M1527.22 124.454H1338.45L1326.65 171.849H1395.54L1344.63 375.866H1395.23L1446.11 171.849H1515.41L1527.22 124.454Z" fill="#03010D"/>
<path d="M1652.38 119.404C1614.02 119.359 1576.85 132.707 1547.28 157.143C1516.97 180.31 1495.47 213.122 1486.34 250.16C1476.99 287.148 1481.87 318.063 1500.87 343.177C1519.89 368.336 1548.65 380.916 1587.13 380.916C1634.05 380.916 1681.21 357.918 1712.26 321.646L1674.73 296.839C1665.52 307.965 1653.98 316.923 1640.91 323.074C1627.85 329.226 1613.59 332.42 1599.15 332.429C1574.37 332.429 1555.71 324.887 1544.55 309.43C1533.39 293.973 1530.59 274.045 1536.6 250.16C1542.18 226.676 1555.37 205.701 1574.13 190.514C1592.84 175.329 1616.28 167.201 1640.37 167.55C1669.68 167.55 1690.93 180.823 1698.1 203.446L1747.92 178.674C1734.95 142.402 1698.92 119.404 1652.38 119.404Z" fill="#03010D"/>
<path d="M1806.92 224.295L1831.82 124.454H1781.22L1718.51 375.866H1769.07L1795.08 271.725H1890.38L1864.38 375.866H1914.61L1977.32 124.454H1927.09L1902.18 224.295H1806.92Z" fill="#03010D"/>
<path d="M2001.48 375.866L2064.2 124.454H2013.59L1950.88 375.866H2001.48Z" fill="#03010D"/>
<path fill-rule="evenodd" clip-rule="evenodd" d="M1063.56 124.454C1087.45 124.454 1105.5 132.711 1117.96 148.851C1130.41 164.991 1133.92 184.782 1128.19 207.78C1120.38 239.036 1093.42 267.767 1060.43 281.04L1093.56 375.866H1038.96L1009.04 288.581H970.582L948.777 375.866H898.277L960.993 124.454H1063.56ZM1077.59 207.575C1072.5 228.049 1052.51 245.11 1033.47 245.11H981.398L999.961 170.587H1052C1071.07 170.587 1082.67 187.102 1077.59 207.575Z" fill="#03010D"/>
</svg>
