<svg width="500" height="500" viewBox="0 0 500 500" fill="none" xmlns="http://www.w3.org/2000/svg">
<path d="M388.859 212.762L348.186 375.832H398.414L461.13 124.419H409.162L306.216 243.301L278.167 175.773L277.962 175.603C262.71 142.709 231.352 119.369 194.977 119.369C159.354 119.369 138.13 126.194 118.202 139.843C99.0505 152.405 85.4269 171.815 80.1221 194.097C74.3555 217.061 78.2113 234.702 91.4165 245.826C104.622 256.95 117.349 262.341 138.744 269.166C158.194 274.898 170.955 280.699 177.95 285.34C184.945 289.98 187.197 296.805 184.945 305.813C180.987 321.236 165.393 332.394 137.174 332.394C107.829 332.394 91.1436 319.462 87.7314 293.939L38.2883 318.746C42.9972 357.167 72.6494 380.882 123.594 380.882C149.167 381.434 174.319 374.302 195.796 360.409C215.705 347.858 229.977 328.082 235.617 305.233C238.961 293.57 238.724 281.17 234.934 269.644C232.341 261.045 222.855 252.071 216.304 247.396C211.96 244.193 207.164 241.651 202.075 239.855C197.235 237.46 192.229 235.419 187.095 233.747L170.921 227.98C153.314 222.248 141.815 216.856 136.014 212.182C133.411 209.77 131.552 206.663 130.657 203.229C129.762 199.795 129.869 196.176 130.964 192.8C134.649 178.06 155.737 166.594 185.218 166.594C207.568 166.594 229.816 192.289 234.559 213.82L235.241 213.478L281.545 329.494H287.551L388.859 212.762Z" fill="#03010D"/>
</svg>
