<svg width="229" height="64" viewBox="0 0 229 64" fill="none" xmlns="http://www.w3.org/2000/svg">
<g clip-path="url(#clip0_585_236)">
<path d="M82.7832 63.2395H82.5384C77.5452 63.1809 72.7478 61.2851 69.0595 57.9127L68.9028 57.768L69.0301 57.5988C69.363 57.1451 69.9848 56.3039 70.4451 55.5804L70.5968 55.3351L70.8025 55.5289C73.9815 58.5426 78.1767 60.2465 82.5531 60.3014H82.7832V63.2395ZM69.5393 57.7042C73.0625 60.8583 77.592 62.652 82.3156 62.7637V60.7698C78.0022 60.6588 73.8745 58.988 70.6948 56.066C70.3055 56.6521 69.8502 57.2824 69.5393 57.7042ZM50.5694 63.2395V60.2965H50.7995C55.1754 60.2392 59.3698 58.5357 62.5501 55.524L62.7557 55.3302L62.9075 55.5755C63.4216 56.3848 64.0654 57.2579 64.32 57.5939L64.4473 57.7656L64.2907 57.9078C60.6021 61.2797 55.8048 63.1756 50.8117 63.2346L50.5694 63.2395ZM51.0369 60.7698V62.7637C55.7588 62.6524 60.2866 60.8596 63.8084 57.7067C63.5367 57.3388 63.074 56.7012 62.6578 56.066C59.4772 58.9867 55.3501 60.6572 51.0369 60.7698ZM82.8028 57.5007H82.558C79.9168 57.4872 77.3298 56.7485 75.0785 55.3648C72.8271 53.9811 70.9976 52.0055 69.789 49.6527C69.3545 50.8641 68.8069 52.0317 68.1537 53.1402C67.781 53.8297 67.3502 54.4861 66.866 55.1022L66.6824 55.3278L66.5013 55.1022C66.0162 54.4852 65.583 53.8289 65.2062 53.1402C64.5529 52.0318 64.0054 50.8641 63.5709 49.6527C62.3623 52.0055 60.5328 53.9811 58.2814 55.3648C56.0301 56.7485 53.4431 57.4872 50.8019 57.5007H50.5571V54.5651H50.7872C53.831 54.5373 56.7411 53.3085 58.8863 51.1451C61.0316 48.9818 62.2389 46.0584 62.2465 43.009V24.917H65.2968V42.803C65.2953 45.1233 65.7599 47.4203 66.6628 49.5571C67.5655 47.4202 68.03 45.1233 68.0288 42.803V24.9219H71.0815V43.0114C71.0879 46.0608 72.2945 48.9846 74.4395 51.1481C76.5845 53.3117 79.4947 54.5404 82.5384 54.5675H82.7832L82.8028 57.5007ZM69.7204 48.4829L70.21 49.4369C71.3617 51.6775 73.0956 53.5653 75.2287 54.9012C77.3619 56.2371 79.8153 56.9716 82.3303 57.0274L82.3156 55.0335C79.1885 54.9492 76.2175 53.6467 74.0338 51.4027C71.8501 49.1588 70.6259 46.1502 70.6213 43.0163V25.3903H68.5062V42.803C68.5089 45.1858 68.0319 47.5447 67.1035 49.7386L66.6751 50.7662L66.2442 49.741C65.317 47.5468 64.8399 45.1881 64.8415 42.8054V25.3928H62.7264V43.0139C62.7218 46.1469 61.4983 49.1548 59.3156 51.3986C57.133 53.6425 54.1632 54.9455 51.0369 55.031V57.0249C53.5526 56.9691 56.0066 56.2343 58.1402 54.8979C60.2738 53.5616 62.0079 51.6732 63.1597 49.432L63.6493 48.4755L64.0091 49.4909C64.4338 50.6758 64.969 51.818 65.6077 52.9023C65.9255 53.4811 66.2813 54.0382 66.6726 54.57C67.0674 54.0392 67.4241 53.4811 67.74 52.8998V52.8827C68.3757 51.8006 68.9101 50.6619 69.3361 49.4811L69.7204 48.4829ZM82.7881 51.7864H82.5433C80.2404 51.7194 78.0543 50.7556 76.4494 49.0997C74.8445 47.4438 73.9472 45.2263 73.9482 42.9182V34.9942H76.8859V42.9182C76.878 44.4509 77.4673 45.9263 78.5284 47.0305C79.5895 48.1347 81.0386 48.7807 82.5678 48.8312H82.793L82.7881 51.7864ZM74.4207 35.4627V42.9182C74.4357 45.057 75.2599 47.1105 76.7269 48.6644C78.1939 50.2183 80.1947 51.1569 82.3254 51.291V49.2873C80.7196 49.1662 79.2186 48.442 78.1229 47.2597C77.0271 46.0774 76.4175 44.5242 76.4158 42.9109V35.4627H74.4207ZM50.5694 51.7864V48.8557H50.7946C52.3259 48.8002 53.7753 48.1491 54.8352 47.0405C55.8952 45.932 56.4822 44.4533 56.4716 42.9182V34.9942H59.4093V42.9182C59.4058 45.2237 58.5062 47.4372 56.9012 49.0895C55.2963 50.7418 53.1121 51.7029 50.8117 51.7692L50.5694 51.7864ZM51.0321 49.2947V51.2934C53.1632 51.1599 55.1643 50.221 56.6312 48.6664C58.098 47.1118 58.9211 45.0574 58.9343 42.9182V35.4627H56.9392V42.9182C56.9376 44.5312 56.3283 46.084 55.2331 47.2663C54.1378 48.4485 52.6375 49.1729 51.0321 49.2947Z" fill="white"/>
<path d="M50.5645 11.4653C48.221 11.4686 45.9744 12.4026 44.3173 14.0628C42.6602 15.7229 41.7278 17.9735 41.7246 20.3212V42.9331C41.7278 45.2807 42.6603 47.5311 44.3175 49.1908C45.9747 50.8505 48.2212 51.784 50.5645 51.7866V48.851C49.7872 48.851 49.0175 48.6975 48.2994 48.3993C47.5814 48.101 46.929 47.6639 46.3797 47.1129C45.8304 46.562 45.3949 45.9079 45.0981 45.1882C44.8013 44.4684 44.6491 43.6972 44.65 42.9184V20.3163C44.6815 18.7667 45.3181 17.2912 46.4231 16.2065C47.5282 15.1217 49.0137 14.5141 50.5608 14.5141C52.108 14.5141 53.5935 15.1217 54.6985 16.2065C55.8036 17.2912 56.4402 18.7667 56.4716 20.3163V34.9945H59.4093V20.3163C59.4067 17.968 58.4737 15.7167 56.8153 14.0571C55.1568 12.3975 52.9086 11.4653 50.5645 11.4653Z" fill="white"/>
<path d="M24.0863 0.806707C24.0774 7.46638 21.614 13.8882 17.1687 18.8399C12.7234 23.7915 6.60946 26.9243 0 27.6369L0 30.5799C5.12165 30.083 10.0289 28.2717 14.2481 25.3208C18.4672 22.3699 21.8557 18.3791 24.0863 13.7337V63.448H27.024V0.791992H24.0863V0.806707Z" fill="white"/>
<path d="M18.2993 33.1084V63.448H21.237V30.9502L21.0681 31.0998C20.203 31.8459 19.2768 32.5178 18.2993 33.1084Z" fill="white"/>
<path d="M21.2246 0.796875H18.2869C18.2794 5.91742 16.4243 10.8626 13.0636 14.7207C9.70293 18.5788 5.06323 21.0896 0 21.7901V24.7454C5.84665 24.0386 11.233 21.2128 15.143 16.8011C19.0529 12.3893 21.2161 6.6966 21.2246 0.796875Z" fill="white"/>
<path d="M0 33.4516V36.3946C7.91092 35.763 15.3829 32.4959 21.2246 27.1144V22.9722C15.7071 29.0019 8.1342 32.741 0 33.4516Z" fill="white"/>
<path d="M91.6231 42.9185V20.3066C91.6231 17.9579 90.6918 15.7053 89.034 14.0445C87.3762 12.3837 85.1277 11.4507 82.7833 11.4507C80.4388 11.4507 78.1903 12.3837 76.5325 14.0445C74.8747 15.7053 73.9434 17.9579 73.9434 20.3066V34.9945H76.881V20.3115C76.881 18.742 77.5034 17.2368 78.6112 16.127C79.719 15.0171 81.2215 14.3937 82.7881 14.3937C84.3548 14.3937 85.8573 15.0171 86.9651 16.127C88.0729 17.2368 88.6953 18.742 88.6953 20.3115V42.9185C88.6933 44.4874 88.0704 45.9915 86.963 47.1009C85.8556 48.2103 84.3542 48.8344 82.7881 48.8363V51.7793C85.1316 51.7748 87.3777 50.8395 89.0339 49.1784C90.6901 47.5174 91.6212 45.2662 91.6231 42.9185Z" fill="white"/>
<path d="M65.3165 20.1447C65.3038 17.8433 64.702 15.5836 63.5686 13.5818C62.3499 11.2194 60.5066 9.2379 58.24 7.85386C55.9735 6.46981 53.3708 5.73645 50.7163 5.73389H50.4103C46.5761 5.73843 42.9001 7.26602 40.1884 9.9817C37.4767 12.6974 35.9507 16.3795 35.9448 20.2207V43.0165C35.9487 46.8595 37.4738 50.544 40.1855 53.262C42.8973 55.9801 46.5744 57.5098 50.4103 57.5156H50.567V54.5726H50.4299C47.3718 54.5687 44.44 53.35 42.2776 51.1836C40.1152 49.0173 38.8986 46.0802 38.8947 43.0165V20.2305C38.8986 17.1668 40.1152 14.2298 42.2776 12.0634C44.44 9.89707 47.3718 8.67831 50.4299 8.67441H50.7359C53.794 8.67831 56.7258 9.89707 58.8882 12.0634C61.0507 14.2298 62.2672 17.1668 62.2711 20.2305V24.9172H65.3165V20.4512C65.3042 20.3556 65.3116 20.2452 65.3165 20.1447Z" fill="white"/>
<path d="M82.7832 0.000138341C82.4894 0.000138341 82.203 0.000138341 81.9117 0.0197582H81.7893H81.6815C81.0916 0.0516405 80.5114 0.1105 79.9312 0.191432L79.8382 0.203694L79.7427 0.215957C79.1576 0.306699 78.5823 0.41706 78.0168 0.551947H77.9923H77.9728H77.9581H77.8993H77.865C77.2856 0.691967 76.7137 0.861407 76.1514 1.05961L76.0608 1.08904C75.4856 1.28678 74.9209 1.51435 74.3692 1.77083L74.3399 1.78555C71.333 3.16457 68.7022 5.24916 66.6701 7.8628C64.6057 5.20389 61.9168 3.09799 58.8428 1.73282C55.7689 0.367649 52.4056 -0.214373 49.0527 0.0386326C45.6997 0.291639 42.4614 1.37181 39.6263 3.18287C36.7912 4.99392 34.4474 7.47959 32.8039 10.4183V0.797195H29.8662V63.4483H32.8039V52.8242C34.5769 55.9824 37.1563 58.6115 40.2776 60.4422C43.3989 62.2729 46.95 63.2393 50.5669 63.2423V60.2993C45.9347 60.2935 41.4938 58.4476 38.2181 55.1664C34.9424 51.8852 33.0992 47.4366 33.0927 42.796V20.4514C33.1472 15.8448 35.012 11.4453 38.2829 8.20707C41.5538 4.9688 45.9671 3.15277 50.5657 3.15277C55.1643 3.15277 59.5775 4.9688 62.8484 8.20707C66.1193 11.4453 67.9842 15.8448 68.0386 20.4514V24.9223H71.0962V20.2258C71.1001 17.1621 72.3166 14.225 74.4791 12.0587C76.6415 9.89232 79.5733 8.67356 82.6314 8.66967H82.9398C85.9982 8.67291 88.9303 9.89147 91.0929 12.058C93.2554 14.2244 94.4718 17.1619 94.475 20.2258V43.002C94.4711 46.0657 93.2546 49.0027 91.0922 51.1691C88.9297 53.3354 85.998 54.5542 82.9398 54.5581H82.7856L82.8052 57.5011H82.7856V57.5207H82.9521C86.7906 57.5187 90.4715 55.9908 93.1864 53.2723C95.9013 50.5538 97.4284 46.8671 97.4323 43.0216V20.2405C97.4271 16.3982 95.9006 12.715 93.1877 9.99903C90.4748 7.28306 86.7972 5.75626 82.9619 5.75366H82.651C79.9968 5.75732 77.3945 6.49114 75.1281 7.87506C72.8617 9.25898 71.0182 11.2399 69.7987 13.6016C69.4157 12.5461 68.9466 11.5241 68.396 10.5458C69.0509 9.59338 69.7988 8.70858 70.6286 7.90449C72.2077 6.36424 74.0644 5.13837 76.1 4.29198C76.1097 4.28986 76.1197 4.28986 76.1294 4.29198C76.619 4.08598 77.1282 3.90204 77.657 3.74018L77.7451 3.71565C77.9262 3.65924 78.1098 3.61019 78.2934 3.56114L78.4599 3.517L78.5187 3.50228C78.7635 3.43852 79.0279 3.38211 79.2947 3.32816C79.3339 3.32816 79.373 3.31344 79.4147 3.30609L79.4881 3.29382H79.5444H79.5787C79.7427 3.26194 79.9067 3.23251 80.0805 3.20799H80.1172L80.2396 3.18837H80.3229C80.553 3.15648 80.7782 3.12705 81.0108 3.10253H81.0818H81.1209L81.4686 3.07555L81.7966 3.04857H81.897H81.9998C82.2617 3.04857 82.5212 3.02896 82.7856 3.02896C87.4184 3.03285 91.8604 4.87812 95.1365 8.15973C98.4127 11.4413 100.255 15.8911 100.26 20.5323V42.8892C100.239 47.5193 98.3897 51.953 95.1159 55.2213C91.842 58.4896 87.4099 60.3267 82.7881 60.3312V63.2742C88.1987 63.2684 93.386 61.1122 97.2115 57.2789C101.037 53.4455 103.188 48.2483 103.193 42.8279V20.4563C103.191 15.0331 101.041 9.83222 97.2139 5.99651C93.387 2.1608 88.1966 0.00403837 82.7832 0.000138341Z" fill="white"/>
<path d="M116.787 19.0484H113.166V16.4316H114.211L115.095 0.760254H121.766V19.0484H119.029V3.3746H117.675L116.787 19.0484Z" fill="white"/>
<path d="M123.756 0.762695H130.542V3.37459H126.498V7.81604H130.415V10.4255H126.498V16.4316H130.542V19.0484H123.756V0.762695Z" fill="white"/>
<path d="M131.827 0.762695H139.783V3.37459H137.174V19.0484H134.434V3.37459H131.827V0.762695Z" fill="white"/>
<path d="M121.697 23.208H125.041V41.4937H122.297V33.6458L122.742 28.422H122.613L120.706 37.8273H118.148L116.189 28.422H116.057L116.559 33.6458V41.4937H113.81V23.208H117.149L119.374 33.6556H119.465L121.697 23.208Z" fill="white"/>
<path d="M128.229 41.5475C128.069 41.5564 127.909 41.5314 127.759 41.4739C127.609 41.4165 127.474 41.328 127.361 41.2143C127.247 41.1006 127.16 40.9642 127.103 40.8141C127.046 40.664 127.022 40.5035 127.031 40.3433V24.4145C127.022 24.254 127.046 24.0933 127.102 23.9429C127.159 23.7925 127.246 23.6558 127.36 23.5418C127.473 23.4278 127.609 23.3391 127.758 23.2816C127.908 23.224 128.068 23.1989 128.229 23.2078H134.026C134.186 23.1992 134.346 23.2246 134.495 23.2823C134.645 23.3401 134.78 23.4288 134.893 23.5428C135.006 23.6567 135.093 23.7933 135.15 23.9435C135.206 24.0938 135.23 24.2543 135.22 24.4145V40.3556C135.23 40.5156 135.205 40.6758 135.149 40.8257C135.092 40.9757 135.005 41.1119 134.892 41.2256C134.779 41.3393 134.644 41.4278 134.494 41.4854C134.345 41.543 134.185 41.5683 134.026 41.5598H128.229V41.5475ZM132.488 25.8246H129.759V38.9258H132.488V25.8246Z" fill="white"/>
<path d="M138.41 41.4937C138.25 41.5029 138.09 41.4782 137.94 41.4211C137.79 41.364 137.654 41.2758 137.541 41.1623C137.428 41.0488 137.34 40.9126 137.283 40.7626C137.226 40.6126 137.201 40.4522 137.21 40.2919V24.4097C137.201 24.2494 137.226 24.0891 137.283 23.9391C137.34 23.7891 137.428 23.6528 137.541 23.5394C137.654 23.4259 137.79 23.3377 137.94 23.2805C138.09 23.2234 138.25 23.1987 138.41 23.208H145.169V28.4317H142.427V25.8174H139.945V38.8793H142.425V35.4851H145.169V41.4937H138.41Z" fill="white"/>
<path d="M155.754 41.4937H152.846L150.44 32.8757H149.732V41.4937H146.98V23.208H149.732V30.2613H150.515L152.846 23.208H155.754L152.927 31.5685L155.754 41.4937Z" fill="white"/>
<path d="M158.239 41.5474C158.079 41.5564 157.919 41.5313 157.77 41.4739C157.62 41.4165 157.484 41.328 157.371 41.2143C157.258 41.1005 157.17 40.9641 157.114 40.814C157.057 40.6639 157.032 40.5035 157.042 40.3433V24.4144C157.033 24.2541 157.057 24.0935 157.114 23.9433C157.17 23.7931 157.258 23.6565 157.371 23.5426C157.484 23.4287 157.62 23.34 157.769 23.2823C157.919 23.2246 158.079 23.1992 158.239 23.2078H164.036C164.197 23.1977 164.358 23.2221 164.509 23.2791C164.66 23.3362 164.797 23.4247 164.911 23.5388C165.025 23.6528 165.114 23.7899 165.171 23.9408C165.228 24.0918 165.253 24.2532 165.243 24.4144V40.3555C165.253 40.5157 165.228 40.6762 165.172 40.8263C165.115 40.9764 165.027 41.1128 164.914 41.2265C164.801 41.3402 164.665 41.4287 164.516 41.4861C164.366 41.5436 164.206 41.5686 164.046 41.5597H158.239V41.5474ZM162.501 25.8246H159.769V38.9257H162.501V25.8246Z" fill="white"/>
<path d="M175.177 29.5305C175.202 29.9712 175.084 30.4082 174.84 30.7758C174.596 31.1433 174.239 31.4215 173.824 31.5685C174.634 31.853 175.177 32.5347 175.177 33.6065V40.2919C175.187 40.4522 175.162 40.6126 175.105 40.7626C175.048 40.9126 174.96 41.0488 174.847 41.1623C174.733 41.2758 174.597 41.364 174.448 41.4211C174.298 41.4782 174.138 41.5029 173.978 41.4937H167.221V23.208H173.978C174.138 23.1987 174.298 23.2234 174.448 23.2805C174.597 23.3377 174.733 23.4259 174.847 23.5394C174.96 23.6528 175.048 23.7891 175.105 23.9391C175.162 24.0891 175.187 24.2494 175.177 24.4097V29.5305ZM172.443 25.8174H169.968V30.2613H172.443V25.8174ZM169.963 38.8842H172.438V32.8756H169.963V38.8842Z" fill="white"/>
<path d="M178.367 41.4937C178.207 41.5029 178.047 41.4782 177.897 41.4211C177.747 41.364 177.612 41.2758 177.498 41.1623C177.385 41.0488 177.297 40.9126 177.24 40.7626C177.183 40.6126 177.158 40.4522 177.167 40.2919V24.4097C177.158 24.2494 177.183 24.0891 177.24 23.9391C177.297 23.7891 177.385 23.6528 177.498 23.5394C177.612 23.4259 177.747 23.3377 177.897 23.2805C178.047 23.2234 178.207 23.1987 178.367 23.208H185.124V28.4317H182.379V25.8174H179.902V38.8793H182.379V35.4851H185.121V41.4937H178.367Z" fill="white"/>
<path d="M195.711 41.4937H192.805L190.394 32.8757H189.687V41.4937H186.938V23.208H189.687V30.2613H190.47L192.805 23.208H195.711L192.881 31.5685L195.711 41.4937Z" fill="white"/>
<path d="M198.203 41.5476C198.043 41.5568 197.883 41.532 197.732 41.4748C197.582 41.4176 197.446 41.3293 197.332 41.2156C197.218 41.1019 197.13 40.9655 197.073 40.8152C197.015 40.6649 196.99 40.5041 196.999 40.3434V24.4146C196.99 24.2537 197.015 24.0927 197.072 23.9421C197.129 23.7915 197.217 23.6547 197.331 23.5408C197.445 23.4268 197.581 23.3383 197.732 23.2809C197.882 23.2236 198.043 23.1987 198.203 23.2079H204.042C204.203 23.1987 204.363 23.2236 204.514 23.2809C204.664 23.3383 204.8 23.4268 204.914 23.5408C205.028 23.6547 205.116 23.7915 205.174 23.9421C205.231 24.0927 205.256 24.2537 205.246 24.4146V40.3557C205.256 40.5165 205.231 40.6774 205.174 40.8279C205.116 40.9783 205.028 41.115 204.914 41.2287C204.8 41.3425 204.664 41.4308 204.513 41.4879C204.363 41.545 204.202 41.5695 204.042 41.5599H198.203V41.5476ZM202.5 25.8247H199.76V38.9259H202.51L202.5 25.8247Z" fill="white"/>
<path d="M215.066 23.208H218.41V41.4937H215.673V33.6458L216.114 28.422H215.981L214.082 37.8273H211.511L209.553 28.422H209.423L209.913 33.6458V41.4937H207.178V23.208H210.532L212.755 33.6556H212.828L215.066 23.208Z" fill="white"/>
<path d="M226.011 41.4937H222.282V38.8843H223.697L224.251 35.49H222.292L219.697 23.208H222.5L224.544 32.8757H224.674L226.273 23.208H229L226.011 41.4937Z" fill="white"/>
<path d="M115.009 64.0099C114.849 64.0189 114.689 63.9937 114.539 63.9362C114.389 63.8786 114.253 63.79 114.139 63.676C114.026 63.5621 113.938 63.4254 113.881 63.275C113.825 63.1246 113.8 62.9639 113.81 62.8033V46.8622C113.8 46.7018 113.825 46.5414 113.882 46.3912C113.939 46.2411 114.027 46.1048 114.14 45.9911C114.254 45.8774 114.39 45.789 114.539 45.7316C114.689 45.6742 114.849 45.6491 115.009 45.658H121.766V50.8965H119.026V48.2724H116.544V61.3735H119.026V57.967H121.766V63.9952H115.009V64.0099Z" fill="white"/>
<path d="M131.95 45.6553V64.0097H129.218V48.277H126.361V64.0097H123.639V45.6651L131.95 45.6553Z" fill="white"/>
<path d="M135.132 64.0098C134.972 64.0184 134.812 63.993 134.663 63.9353C134.513 63.8776 134.378 63.7888 134.265 63.6749C134.152 63.5609 134.065 63.4243 134.008 63.2741C133.952 63.1239 133.928 62.9634 133.938 62.8032V46.8621C133.928 46.7021 133.952 46.5418 134.009 46.3919C134.066 46.242 134.153 46.1057 134.266 45.992C134.379 45.8783 134.514 45.7898 134.664 45.7322C134.813 45.6746 134.973 45.6493 135.132 45.6579H140.932C141.092 45.6493 141.251 45.6746 141.401 45.7322C141.55 45.7898 141.685 45.8783 141.798 45.992C141.911 46.1057 141.999 46.242 142.055 46.3919C142.112 46.5418 142.136 46.7021 142.126 46.8621V62.8032C142.136 62.9634 142.112 63.1239 142.056 63.2741C141.999 63.4243 141.912 63.5609 141.799 63.6749C141.686 63.7888 141.551 63.8776 141.401 63.9353C141.252 63.993 141.092 64.0184 140.932 64.0098H135.132ZM139.394 48.2869H136.662V61.3881H139.392L139.394 48.2869Z" fill="white"/>
<path d="M146.848 57.9719V64.0099H144.114V45.6653H150.988C151.148 45.6564 151.308 45.6815 151.458 45.7389C151.608 45.7963 151.743 45.8847 151.857 45.9984C151.97 46.1121 152.058 46.2485 152.115 46.3986C152.172 46.5487 152.197 46.7092 152.187 46.8695V56.7751C152.197 56.9356 152.173 57.0964 152.116 57.2468C152.059 57.3972 151.971 57.5338 151.858 57.6478C151.744 57.7617 151.608 57.8504 151.458 57.908C151.309 57.9655 151.148 57.9906 150.988 57.9817L146.848 57.9719ZM146.848 55.3502H149.455V48.2772H146.848V55.3502Z" fill="white"/>
<path d="M153.532 45.6553H161.488V48.277H158.878V64.0097H156.136V48.277H153.532V45.6553Z" fill="white"/>
<path d="M168.563 64.0097H164.841V61.3781H166.256L166.81 57.9716H164.851L162.259 45.6553H165.062L167.106 55.3499H167.236L168.834 45.6553H171.561L168.563 64.0097Z" fill="white"/>
</g>
<defs>
<clipPath id="clip0_585_236">
<rect width="229" height="64" fill="white"/>
</clipPath>
</defs>
</svg>
