<svg width="100" height="30" viewBox="0 0 100 30" fill="none" xmlns="http://www.w3.org/2000/svg">
<g clip-path="url(#clip0_585_266)">
<path fill-rule="evenodd" clip-rule="evenodd" d="M33.5126 11.342C33.6304 10.708 33.7568 10.0566 33.885 9.39576C34.2986 7.2631 34.7314 5.03184 34.9603 2.96961H37.5204V15.5H35.8583V10.5427L36.0541 6.06372C35.8157 7.50455 34.8795 12.8152 33.6902 15.3594V15.3673H33.5126H33.335V15.3594C32.1457 12.8152 31.2095 7.50455 30.9711 6.06372L31.1669 10.5427V15.5H29.5048V2.96961H32.0649C32.2938 5.03196 32.7266 7.26335 33.1402 9.39611L33.1402 9.39617L33.1403 9.39621L33.1403 9.3963C33.2684 10.057 33.3947 10.7082 33.5126 11.342ZM72.0885 5.15427V6.6906C72.0885 7.6895 71.6787 8.41612 71.0268 8.88439C71.7262 9.44115 72.0885 10.3058 72.0885 11.3768V15.4775C71.4951 15.4775 70.9015 15.4764 70.3078 15.4753H70.3076H70.3074H70.3072H70.307H70.3068L70.3048 15.4753C69.7416 15.4742 69.1784 15.4732 68.6153 15.4731V15.4775H66.7109V2.94719H68.6153V2.95155C69.1704 2.95139 69.7255 2.95039 70.2805 2.94938L70.2809 2.94938C70.8836 2.94829 71.4861 2.94719 72.0885 2.94719V5.15427ZM68.6153 9.89147V13.6875H70.1832C70.1832 13.2813 70.1835 12.8757 70.1837 12.4699V12.4698C70.1839 12.0639 70.1842 11.658 70.1842 11.2515C70.1842 9.97348 69.3253 9.85206 68.6153 9.89147ZM68.6153 4.7372V8.09721C69.3253 8.13663 70.1842 8.09392 70.1842 6.81595V5.67608H70.1832V4.7372H68.6153ZM61.6144 15.4775H59.71V2.94719H61.6144H63.4234H65.3625V15.4775H63.4234H61.6144ZM63.4234 4.7372H61.649V13.6875H63.4234V4.7372ZM40.7733 15.4775H38.8688V2.94719H40.7733H42.5822H44.5213V15.4775H42.5822H40.7733ZM42.5822 4.7372H40.8078V13.6875H42.5822V4.7372ZM75.2527 15.4775H73.3482V2.94719H79.0007V7.97611H77.0616V4.7372H75.2527V13.6875H77.0616V10.4484H79.0007V15.4775H77.0616H75.2527ZM47.7741 15.4775H45.8697V2.94719H51.5222V7.97611H49.5831V4.7372H47.7741V13.6875H49.5831V10.4484H51.5222V15.4775H49.5831H47.7741ZM82.2535 15.5H80.3491V2.96961H82.2535V7.8804L82.5698 7.88124C83.6024 7.8839 83.9357 6.75444 83.9357 5.91638V2.96961H85.8401V5.83532C85.8401 7.15366 85.3554 8.14119 84.4117 8.78836C85.4336 9.51414 85.8401 10.4231 85.8401 11.7412V15.5H83.9357V11.6602C83.9357 10.8488 83.5532 9.86566 82.5852 9.87373L82.2535 9.87639V15.5ZM99.2068 0V1.46781H95.0171V0H99.2068ZM94.2241 15.5V2.96961H95.9207V10.2913L97.8771 2.96961H100V15.5H98.286V6.78164L95.9485 15.5158L94.2241 15.5ZM87.0998 15.5V2.96961H88.7964V10.2913L90.7528 2.96961H92.8756V15.5H91.1617V6.78164L88.8243 15.5158L87.0998 15.5ZM54.775 15.5H52.8706V2.96961H54.775V7.8804L55.0912 7.88124C56.124 7.8839 56.4571 6.75444 56.4571 5.91638V2.96961H58.3616V5.83532C58.3616 7.15366 57.8769 8.14119 56.9332 8.78836C57.9551 9.51414 58.3616 10.4231 58.3616 11.7412V15.5H56.4571V11.6602C56.4571 10.8488 56.0747 9.86566 55.1067 9.87373L54.775 9.87639V15.5ZM38.403 29.9995H36.4986V17.4691H42.1511V29.9995H40.212V19.2592H38.403V29.9995ZM31.4093 29.9995H29.5048V17.4691H35.1573V22.4981H33.2183V19.2592H31.4093V28.2093H33.2183V24.9705H35.1573V29.9995H33.2183H31.4093ZM45.3934 29.9995H43.489V17.4691H45.3934H47.2025H49.1415V29.9995H47.2025H45.3934ZM47.2025 19.2592H45.4281V28.2093H47.2025V19.2592ZM56.3375 17.4691H62.2238V19.2592H60.2329V29.9995H58.3286V19.2592H56.3375V17.4691ZM55.8137 21.8194V23.3556C55.8137 25.2835 54.8225 26.6311 52.9745 26.6311H52.3405V29.9995H50.4361V17.4691C51.6307 17.4758 52.826 17.4735 54.0212 17.4713H54.0213H54.0214H54.0215H54.0216C54.619 17.4702 55.2164 17.4691 55.8137 17.4691V21.8194ZM52.3405 19.2592V24.841C53.0505 24.8804 53.9093 24.759 53.9093 23.481V22.3411H53.9083V19.2592H52.3405ZM14.3979 25.1196C13.859 24.6041 13.3525 24.0575 12.8817 23.483L14.0654 21.4642C14.6295 22.2377 15.2638 22.9613 15.9593 23.6264C18.0772 25.6522 20.7617 27.1352 23.7579 27.833V29.9995C20.1514 29.2645 16.9197 27.5316 14.3979 25.1196ZM5.0601 21.2268C7.42106 18.9687 8.88646 15.8547 8.88646 12.4302L8.88675 2.94719H11.0947L11.095 12.4302C11.095 14.0978 11.3718 16.0522 11.879 17.5666C12.3862 16.0522 12.663 14.0978 12.663 12.4302L12.6632 2.94719H14.8712L14.8715 12.4302C14.8715 15.8547 16.3369 18.9687 18.6979 21.2268C20.1064 22.5741 21.8336 23.6161 23.7579 24.2379V26.4496C21.2236 25.7612 18.9531 24.4577 17.1367 22.7203C15.7716 21.4144 14.6628 19.8635 13.8905 18.1446C13.3142 19.634 12.6782 21.0443 11.8841 22.1182L11.879 22.1254L11.8738 22.1182C11.0797 21.0443 10.4437 19.634 9.86751 18.1446C9.09513 19.8635 7.98644 21.4144 6.62129 22.7203C4.80482 24.4577 2.53436 25.7612 0 26.4496V24.2379C1.92439 23.6161 3.6515 22.5741 5.0601 21.2268ZM21.1903 18.6419C19.4697 16.9962 18.4017 14.727 18.4017 12.232V10.0952H16.1934V12.232C16.1934 15.3102 17.5092 18.1078 19.629 20.1353C20.7913 21.2469 22.1958 22.1275 23.7579 22.6962V20.3962C22.8025 19.9498 21.9353 19.3544 21.1903 18.6419ZM5.3563 10.0952H7.5645V12.232C7.5645 15.3102 6.24873 18.1078 4.12901 20.1353C2.96669 21.2469 1.56218 22.1275 0 22.6962V20.3962C0.955469 19.9498 1.8227 19.3544 2.56765 18.6419C4.28829 16.9962 5.3563 14.727 5.3563 12.232V10.0952ZM7.7987 23.6264C8.49411 22.9613 9.12841 22.2377 9.69255 21.4642L10.8763 23.483C10.4055 24.0575 9.89894 24.6041 9.35997 25.1196C6.83832 27.5316 3.60657 29.2645 0 29.9995V27.833C2.99623 27.1352 5.68066 25.6522 7.7987 23.6264Z" fill="white"/>
</g>
<defs>
<clipPath id="clip0_585_266">
<rect width="100" height="30" fill="white"/>
</clipPath>
</defs>
</svg>
