<?xml version="1.0" encoding="UTF-8"?><svg xmlns="http://www.w3.org/2000/svg" xmlns:xlink="http://www.w3.org/1999/xlink" viewBox="0 0 404.05 468.25"><defs><style>.l{fill:url(#e);}.m{fill:url(#d);}.n{fill:url(#g);}.o{fill:url(#f);}.p{fill:url(#i);}.q{fill:url(#h);}.r{fill:url(#k);}.s{fill:url(#j);}.t{fill:#fff;}</style><linearGradient id="d" x1="49.87" y1="454.87" x2="389.56" y2="256.05" gradientTransform="matrix(1, 0, 0, 1, 0, 0)" gradientUnits="userSpaceOnUse"><stop offset="0" stop-color="#780afa"/><stop offset=".22" stop-color="#9214c8"/><stop offset=".71" stop-color="#d32f4c"/><stop offset="1" stop-color="#fc4000"/></linearGradient><linearGradient id="e" x1="50.98" y1="456.77" x2="390.67" y2="257.95" xlink:href="#d"/><linearGradient id="f" x1="53.41" y1="460.92" x2="393.1" y2="262.1" xlink:href="#d"/><linearGradient id="g" x1="57.87" y1="468.55" x2="397.57" y2="269.73" xlink:href="#d"/><linearGradient id="h" x1="60.06" y1="472.29" x2="399.76" y2="273.47" xlink:href="#d"/><linearGradient id="i" x1="61.99" y1="475.58" x2="401.68" y2="276.76" xlink:href="#d"/><linearGradient id="j" x1="63.77" y1="478.62" x2="403.46" y2="279.8" xlink:href="#d"/><linearGradient id="k" x1="-10.63" y1="301.56" x2="318.88" y2="80.93" xlink:href="#d"/></defs><g id="a"/><g id="b"><g id="c"><g><g><path class="m" d="M77.65,434.75v-13.63l4.48-2.13v-1.07c0-5.74,1.11-10.53,3.33-14.38,2.27-3.93,5.68-6.98,10.24-9.15,3.54-1.68,6.5-2.65,8.88-2.89v12.25c-1.73,.13-3.42,.59-5.07,1.38-2.59,1.23-3.88,3.41-3.88,6.54v1.16l8.88-4.22v13.37l-8.67,4.12v35.62l-13.71,6.52v-35.62l-4.48,2.13Z"/><path class="l" d="M108.81,401.57v-12.83l14.31-6.8v12.83l-14.31,6.8Zm.32,53.85v-49.53l13.71-6.52v49.53l-13.71,6.52Z"/><path class="o" d="M128.23,410.85v-14.04l4.62-2.19v-12.52l13.71-6.52v12.52l9.09-4.32v14.04l-9.09,4.32v16.8c0,1.73,.3,2.85,.92,3.35,.61,.5,1.56,.44,2.86-.17,1.67-.79,3.39-2.17,5.18-4.12v13.56c-2.7,3.18-5.87,5.64-9.52,7.37-4.28,2.03-7.54,2.28-9.78,.74-2.24-1.54-3.37-5.16-3.37-10.88v-20.13l-4.62,2.19Z"/><path class="n" d="M161.54,430.51v-49.53l13.71-6.52v7.02c3.35-7.01,7.25-11.58,11.7-13.7,4.13-1.96,7.38-1.89,9.75,.24s3.54,6.02,3.54,11.68v32.41l-13.71,6.52v-26.75c0-2.65-.5-4.45-1.5-5.42-1-.97-2.34-1.05-4.01-.25-1.72,.82-3.11,2.21-4.17,4.17-1.06,1.96-1.59,4.25-1.59,6.86v26.75l-13.71,6.52Z"/><path class="q" d="M205.7,384.8c0-3.58,.49-7.19,1.46-10.84,.97-3.65,2.32-7.04,4.04-10.17,1.71-3.12,3.8-5.95,6.26-8.47,2.46-2.52,5.1-4.46,7.95-5.81,3.27-1.55,6.18-2.21,8.74-1.99s4.63,1.23,6.2,3c1.57,1.77,2.77,4.07,3.58,6.9,.81,2.83,1.22,6.11,1.22,9.84,0,1.58-.02,2.78-.07,3.61l-26.15,12.43c.54,2.45,1.54,4.04,3.01,4.76,1.47,.72,3.28,.56,5.45-.46,3.05-1.45,5.94-4.54,8.67-9.28l7.58,4.43c-4.16,8.62-9.82,14.63-16.99,18.04-4.07,1.93-7.68,2.58-10.86,1.94-3.17-.64-5.65-2.5-7.42-5.59s-2.66-7.2-2.66-12.32Zm13.01-10.29l13.57-6.45c-.26-2.65-.99-4.49-2.18-5.53s-2.73-1.12-4.58-.24c-1.76,.84-3.25,2.36-4.46,4.56-1.21,2.2-1.99,4.75-2.34,7.66Z"/><path class="p" d="M248,382.99l5.15-12.98c4.51,1.53,8.99,1.25,13.43-.86,2.3-1.09,3.45-2.55,3.45-4.38,0-.87-.47-1.36-1.41-1.48-.94-.12-2.56,0-4.86,.33-1.74,.25-3.22,.4-4.44,.46-1.22,.06-2.47-.04-3.74-.31-1.27-.27-2.29-.72-3.05-1.38-.76-.65-1.39-1.63-1.89-2.93-.49-1.3-.74-2.91-.74-4.82,0-5.25,1.45-10.02,4.33-14.32,2.89-4.3,6.66-7.55,11.31-9.77,2.87-1.36,5.71-2.19,8.53-2.48,2.82-.29,5.35-.03,7.58,.79l-4.69,13.26c-2.02-.4-4.06-.51-6.13-.32-2.07,.19-3.88,.65-5.43,1.38-1.03,.49-1.82,1.08-2.36,1.77-.54,.69-.81,1.43-.81,2.21,0,.87,.46,1.37,1.39,1.49,.93,.12,2.58,.06,4.95-.2,1.74-.22,3.22-.34,4.44-.37,1.22-.03,2.47,.09,3.74,.35s2.29,.72,3.05,1.38c.76,.65,1.39,1.6,1.89,2.86,.49,1.26,.74,2.81,.74,4.67,0,5.41-1.43,10.25-4.3,14.51-2.87,4.26-6.74,7.56-11.63,9.88-6.98,3.32-13.15,3.73-18.5,1.25Z"/><path class="s" d="M285.08,365.36l5.15-12.98c4.51,1.53,8.99,1.25,13.43-.86,2.3-1.09,3.45-2.55,3.45-4.38,0-.87-.47-1.36-1.41-1.48-.94-.12-2.56,0-4.86,.33-1.74,.25-3.22,.4-4.44,.46-1.22,.06-2.47-.04-3.74-.31-1.27-.27-2.29-.72-3.05-1.38-.76-.65-1.39-1.63-1.89-2.93-.49-1.3-.74-2.91-.74-4.82,0-5.25,1.45-10.02,4.34-14.32s6.66-7.55,11.31-9.77c2.87-1.36,5.71-2.19,8.53-2.48,2.82-.29,5.35-.03,7.58,.79l-4.69,13.26c-2.02-.4-4.07-.51-6.13-.32-2.07,.19-3.88,.65-5.43,1.38-1.03,.49-1.82,1.08-2.36,1.77-.54,.69-.81,1.43-.81,2.21,0,.87,.46,1.37,1.39,1.49,.93,.12,2.58,.06,4.95-.2,1.74-.22,3.22-.34,4.44-.37,1.22-.03,2.47,.09,3.74,.35,1.27,.27,2.29,.72,3.05,1.38,.76,.65,1.39,1.6,1.89,2.86,.49,1.26,.74,2.81,.74,4.67,0,5.41-1.43,10.25-4.3,14.51-2.87,4.26-6.74,7.56-11.63,9.88-6.98,3.32-13.15,3.73-18.5,1.25Z"/></g><path class="r" d="M339.8,125.19l-69.91,33.19-.02-.03c-.26-.33-.53-.65-.82-.96-.11-.14-.23-.27-.38-.41-.29-.32-.59-.63-.89-.94-.41-.41-.82-.82-1.24-1.2-.23-.23-.47-.44-.71-.65-.16-.13-.32-.27-.49-.42-.34-.28-.69-.57-1.05-.84-.17-.14-.34-.27-.51-.38-.34-.26-.68-.51-1.03-.74-.01-.01-.01-.02-.02-.02-.02-.03-.05-.05-.07-.05h-.01c-.13-.1-.27-.19-.4-.27-.36-.25-.74-.49-1.11-.72-.24-.15-.49-.29-.73-.44-.76-.44-1.54-.84-2.33-1.22-.05-.02-.1-.05-.14-.07s-.09-.05-.14-.07h-.01c-.26-.12-.52-.24-.78-.34-.33-.15-.66-.29-.99-.43-.71-.3-1.54-.66-2.5-1.07-3.37-1.46-58.11-24.83-59.1-25.22,4.7-1.27,9.51-2.22,14.37-2.84,.11-.02,.21-.03,.32-.04,.02,0,.04,0,.06-.01,1.74-.22,3.49-.39,5.24-.53,.59-.05,1.18-.09,1.77-.13,1.35-.09,2.7-.14,4.06-.18,.79-.02,1.58-.02,2.37-.03,.91,0,1.81-.02,2.72,0,.42,.01,.84,.01,1.25,.02h.15c.62,.02,1.24,.04,1.87,.07,.13,0,.26,0,.39,.02,.17,0,.33,.02,.5,.03,.08,0,.16,0,.24,.01,2.62,.15,5.23,.38,7.81,.71,1.01,.13,2.01,.27,3,.43,.53,.08,1.07,.16,1.6,.25,.37,.06,.74,.13,1.1,.2,.25,.04,.49,.09,.73,.13,.39,.07,.78,.15,1.17,.23,.27,.05,.54,.1,.8,.16,.74,.15,1.48,.31,2.22,.49l27.37-83.07c-8.11-3.47-37.45-16.1-57.99-24.93-.81-.36-1.61-.7-2.4-1.04-8.57-3.69-15.27-6.57-17.65-7.6-.07-.02-.13-.05-.19-.08-.13-.05-.23-.1-.33-.14-.27-.12-.42-.18-.42-.18-25.33-7.44-52.68-3.2-77.19,5.41C62.97,28.33,15.12,77.68,8.33,138.26c-2.61,24.91-2.5,59.1,21.35,71.67,.03,.02,.07,.04,.1,.05,.46,.25,.94,.49,1.42,.7,.19,.1,.39,.19,.58,.28,0,0,.39,.17,1.1,.47,.27,.12,.59,.26,.95,.42,.43,.18,.92,.39,1.46,.63,.03,.01,.05,.02,.08,.04,.28,.12,.57,.24,.88,.38,.3,.12,.62,.26,.95,.41,.33,.14,.67,.28,1.02,.44,2.07,.89,4.55,1.96,7.31,3.15,.71,.31,1.44,.63,2.19,.94,.49,.22,.98,.43,1.48,.64,6.14,2.65,13.21,5.69,20.05,8.62,11.58,4.96,22.5,9.59,27.08,11.41-21.44,7.48-45.34,8.6-66.94,1.29L0,320.74l79.15,33.87c15.79,6.04,33.1,8.09,51.31,6.11,18.87-2.1,38.33-7.92,57.82-17.21,.49-.25,.98-.48,1.46-.72,2.14-.85,4.25-1.78,6.37-2.78,22.28-10.64,43.92-29.92,61.88-55.21,7.55-11.74,13.46-24.62,17.52-37.74l22.97,10.49,31.97,13.75,73.6-34.91-.02-83.55-64.23-27.66Z"/><g><path class="t" d="M121.14,357.07c-12.4,0-24.34-1.85-35.57-5.51l26.01-71.69c8.72,2.49,17.88,3.76,27.29,3.76,2.14,0,4.3-.07,6.43-.2h3.12l.16-.32c23.01-2.58,48.32-10.31,55.17-22.33,3.35-5.88,3.92-10.79,1.7-14.61-3.5-6.03-12.26-6.03-15.14-6.03-4.26,0-8.85,.55-12.54,.99-1.04,.12-2.02,.24-2.91,.34l-.21,.03c-13.33,1.98-25.46,3.07-36.07,3.25h-.17c-1.3,.07-2.6,.11-3.85,.11-14.22,0-25.06-4.36-32.2-12.97-15.05-18.12-11.64-51.1-8.27-69.14,6.11-32.8,25.67-63.81,55.08-87.32,28.6-22.87,63.97-35.98,97.03-35.98,7.76,0,15.41,.71,22.82,2.11l-24.24,73.57c-7.39-1.35-14.75-2.03-21.93-2.03-15.68,0-30.94,3.23-45.36,9.59-9,3.41-16.47,13.14-16.01,20.9,.28,4.78,3.42,8.35,8.4,9.56,4.64,1.12,9.6,1.67,15.16,1.67,8.6,0,17.4-1.33,25.91-2.61,8.53-1.29,16.59-2.51,24.46-2.51,9.93,0,17.73,2,24.56,6.29l.13,.08c9.21,5.9,15.37,19.8,16.9,38.14,2.74,32.72-9.85,70.12-23.09,88.7-15.92,22.34-36.8,41.09-60.37,54.22-23.44,13.05-48.48,19.95-72.4,19.95Z"/><polygon class="t" points="335.41 190.93 399.03 160.75 399.05 233.23 335.45 263.4 335.41 190.93"/></g></g></g></g></svg>